<svg stroke-miterlimit="10" style="fill-rule:nonzero;clip-rule:evenodd;stroke-linecap:round;stroke-linejoin:round" viewBox="0 0 100 100" xml:space="preserve" xmlns="http://www.w3.org/2000/svg" xmlns:vectornator="http://vectornator.io">
	<defs>
		<linearGradient gradientTransform="scale(95.0943) rotate(29.966 -.462 .31)" gradientUnits="userSpaceOnUse" id="a" x1="0" x2="1" y1="0" y2="0">
			<stop offset=".223" stop-color="#3b82f6" />
			<stop offset=".765" stop-color="#5eead4" />
		</linearGradient>
		<linearGradient gradientTransform="scale(95.3563) rotate(29.888 -.468 .311)" gradientUnits="userSpaceOnUse" id="b" x1="0" x2="1" y1="0" y2="0">
			<stop offset=".222" stop-color="#3b82f6" />
			<stop offset=".759" stop-color="#5eead4" />
		</linearGradient>
		<linearGradient gradientTransform="rotate(29.901 -44.859 29.872) scale(95.0982)" gradientUnits="userSpaceOnUse" id="c" x1="0" x2="1" y1="0" y2="0">
			<stop offset=".208" stop-color="#3b82f6" />
			<stop offset=".776" stop-color="#5eead4" />
		</linearGradient>
	</defs>
	<g vectornator:layerName="Untitled">
		<path d="M36.335 56.084v10.13l24.89 14.37-.42.24-10.7 6.18-10.7-6.18-10.7-6.18-10.7-6.18v-37.06l.02-.02 3.28-1.89 7.4-4.27 1.1-.64 33.87 19.55.2-.35v-10.13l-34.07-19.67-9.18 5.3-8.5 4.91-3.28 1.89-.02.02v47.66l41.28 23.84 20.3-11.72 9.18-5.3-43.05-24.85-.2.35Z" fill="url(#a)" vectornator:layerName="path" />
		<path d="m50.043 2.286-9.18 5.3 19.88 11.48 10.7 6.18 10.7 6.18v36.9l9.18 5.3v-47.5l-41.28-23.84Z" fill="url(#b)" vectornator:layerName="path" />
		<path d="m36.23 47.35 27.54 15.9v-10.6l-27.54-15.9v10.6Z" fill="url(#c)" vectornator:layerName="path" />
	</g>
</svg>
